<?xml version="1.0" encoding="utf-8"?>
<svg xmlns="http://www.w3.org/2000/svg" xmlns:xlink="http://www.w3.org/1999/xlink" width="173" height="85" viewBox="0 0 173 85"><defs><style>.a,.f{fill:none;}.a{stroke:#707070;opacity:0;}.b{fill:#fafafa;}.c{fill:#2edce3;}.d{fill:url(#a);}.e{stroke:none;}</style><radialGradient id="a" cx="0.791" cy="0.186" r="1.384" gradientTransform="matrix(-0.643, 0.772, -0.781, -0.636, 1.445, -0.307)" gradientUnits="objectBoundingBox"><stop offset="0" stop-color="#ff5da4"/><stop offset="0.368" stop-color="#ff7086"/><stop offset="1" stop-color="#ffc400"/></radialGradient></defs><g transform="translate(-2096 8764.784)"><g class="a" transform="translate(2096 -8764.784)"><rect class="e" width="173" height="85"/><rect class="f" x="0.5" y="0.5" width="172" height="84"/></g><g transform="translate(2114.879 -8741.378)"><g transform="translate(36.177 6.659)"><path class="b" d="M637.6,494.962V475.4h9.152c4.259,0,6.567,2.874,6.567,6.313,0,3.4-2.343,6.313-6.567,6.313h-4.986v6.959H637.6ZM649.072,481.7a2.628,2.628,0,0,0-2.874-2.643h-4.432v5.286h4.42A2.644,2.644,0,0,0,649.072,481.7Z" transform="translate(-637.6 -475.4)"/><path class="b" d="M784.9,536.272V522.1h3.728v14.172Z" transform="translate(-767.9 -516.71)"/><path class="b" d="M835.567,533.53v-8.563c0-1.962-1.027-2.643-2.608-2.643A4.049,4.049,0,0,0,829.728,524v9.533H826V519.358h3.728V521.2a6.5,6.5,0,0,1,4.963-2.2c3.1,0,4.6,1.766,4.6,4.524V533.53Z" transform="translate(-804.257 -513.968)"/><path class="b" d="M956.275,494.962l-3.751-5.459-1.7,1.823v3.635H947.1V475.4h3.728v11.7l5.366-6.313h4.582l-5.609,6.428,5.782,7.744Z" transform="translate(-911.381 -475.4)"/><path class="b" d="M1090.565,533.53v-8.944c0-1.316-.589-2.262-2.112-2.262a3.769,3.769,0,0,0-2.931,1.639v9.568h-3.751v-8.944c0-1.316-.589-2.262-2.112-2.262a3.779,3.779,0,0,0-2.931,1.673v9.533H1073V519.358h3.728V521.2a6.2,6.2,0,0,1,4.639-2.2,3.753,3.753,0,0,1,3.936,2.585,6.011,6.011,0,0,1,4.87-2.585c2.609,0,4.167,1.374,4.167,4.282v10.237h-3.774Z" transform="translate(-1022.75 -513.968)"/><path class="b" d="M1273.017,533.619v-1.466a5.877,5.877,0,0,1-4.489,1.823,4.718,4.718,0,0,1-4.928-4.7c0-3.312,2.666-4.582,4.928-4.582a5.8,5.8,0,0,1,4.489,1.731v-1.9c0-1.443-1.235-2.378-3.1-2.378a5.931,5.931,0,0,0-4.132,1.673l-1.408-2.493a9.3,9.3,0,0,1,6.186-2.227c3.232,0,6.186,1.293,6.186,5.367v9.152Zm0-3.4v-1.766a3.724,3.724,0,0,0-2.989-1.235c-1.466,0-2.666.762-2.666,2.146,0,1.316,1.2,2.089,2.666,2.089A3.7,3.7,0,0,0,1273.017,530.214Z" transform="translate(-1191.353 -514.057)"/><path class="b" d="M1383.3,533.619V519.446h3.728v1.939a6.093,6.093,0,0,1,4.524-2.285v3.635a4.965,4.965,0,0,0-1.027-.092,4.76,4.76,0,0,0-3.5,1.616v9.36Z" transform="translate(-1297.239 -514.057)"/><path class="b" d="M1463.242,503.03v-7.4H1460.9v-3.255h2.343V488.5h3.751v3.878h2.874v3.255h-2.874v6.394c0,.877.473,1.558,1.292,1.558a2.04,2.04,0,0,0,1.293-.415l.8,2.816a4.606,4.606,0,0,1-3.1.912C1464.651,506.908,1463.242,505.558,1463.242,503.03Z" transform="translate(-1365.883 -486.988)"/><path class="b" d="M1556.4,611.8a2.227,2.227,0,1,1,2.228,2.227A2.251,2.251,0,0,1,1556.4,611.8Z" transform="translate(-1450.362 -594.112)"/></g><path class="c" d="M329.951,541.688a4.347,4.347,0,0,1-4.351-4.351V526.142a1.7,1.7,0,0,1,.012-.242,8.817,8.817,0,0,0,8.7,8.471v2.966a4.364,4.364,0,0,1-4.362,4.351Z" transform="translate(-325.6 -513.413)"/><path class="b" d="M325.6,494.461a4.354,4.354,0,0,1,8.7.242v8.229A8.818,8.818,0,0,1,325.6,494.461Z" transform="translate(-325.6 -481.962)"/><path class="d" d="M337.533,438.67h-3.22v-8.229a4.354,4.354,0,0,0-8.7-.242c0-.115-.012-.231-.012-.346v-3.335a8.8,8.8,0,0,1,8.806-8.817h3.116a8.8,8.8,0,0,1,8.817,8.806v3.347a8.8,8.8,0,0,1-8.806,8.817Zm-4.8-.162a9.06,9.06,0,0,1-2.527-.9A9.06,9.06,0,0,0,332.732,438.508Zm-4.513-2.389a8.949,8.949,0,0,1-1.523-2.008,8.638,8.638,0,0,1-.969-2.758,8.779,8.779,0,0,0,2.493,4.766Z" transform="translate(-325.6 -417.7)"/></g></g></svg>