<?xml version="1.0" encoding="utf-8"?>
<svg xmlns="http://www.w3.org/2000/svg" xmlns:xlink="http://www.w3.org/1999/xlink" width="147.546" height="31.254" viewBox="0 0 147.546 31.254"><defs><style>.a{fill:#fafafa;}.b{fill:#2edce3;}.c{fill:url(#a);}</style><radialGradient id="a" cx="0.791" cy="0.186" r="1.384" gradientTransform="matrix(-0.643, 0.772, -0.781, -0.636, 1.445, -0.307)" gradientUnits="objectBoundingBox"><stop offset="0" stop-color="#ff5da4"/><stop offset="0.368" stop-color="#ff7086"/><stop offset="1" stop-color="#ffc400"/></radialGradient></defs><g transform="translate(43.988 7.361)"><path class="a" d="M637.6,493.734V475.4h8.578c3.991,0,6.155,2.693,6.155,5.917a5.752,5.752,0,0,1-6.155,5.917H641.5v6.522h-3.9Zm10.752-12.428a2.463,2.463,0,0,0-2.693-2.477H641.5v4.954h4.143A2.478,2.478,0,0,0,648.352,481.306Z" transform="translate(-637.6 -475.4)"/><path class="a" d="M784.9,535.383V522.1h3.494v13.283Z" transform="translate(-768.967 -517.049)"/><path class="a" d="M834.967,532.618v-8.026a2.157,2.157,0,0,0-2.444-2.477,3.8,3.8,0,0,0-3.029,1.568v8.935H826V519.335h3.494v1.731A6.1,6.1,0,0,1,834.145,519c2.91,0,4.316,1.655,4.316,4.24v9.378Z" transform="translate(-805.621 -514.284)"/><path class="a" d="M955.7,493.734l-3.515-5.116-1.59,1.709v3.407H947.1V475.4h3.494v10.968l5.03-5.917h4.294l-5.257,6.025,5.419,7.258Z" transform="translate(-913.623 -475.4)"/><path class="a" d="M1089.463,532.618v-8.383c0-1.233-.552-2.12-1.979-2.12a3.532,3.532,0,0,0-2.747,1.536v8.967h-3.515v-8.383c0-1.233-.552-2.12-1.98-2.12a3.542,3.542,0,0,0-2.747,1.568v8.935H1073V519.335h3.494v1.731a5.815,5.815,0,0,1,4.348-2.066,3.517,3.517,0,0,1,3.689,2.423A5.634,5.634,0,0,1,1089.1,519c2.445,0,3.905,1.287,3.905,4.013v9.594h-3.537Z" transform="translate(-1025.904 -514.284)"/><path class="a" d="M1272.426,532.707v-1.374a5.508,5.508,0,0,1-4.207,1.709,4.422,4.422,0,0,1-4.619-4.4c0-3.1,2.5-4.294,4.619-4.294a5.438,5.438,0,0,1,4.207,1.623v-1.785c0-1.352-1.157-2.228-2.909-2.228a5.559,5.559,0,0,0-3.872,1.568l-1.32-2.336a8.715,8.715,0,0,1,5.8-2.088c3.029,0,5.8,1.211,5.8,5.03v8.578Zm0-3.191v-1.655a3.49,3.49,0,0,0-2.8-1.157c-1.374,0-2.5.714-2.5,2.012,0,1.233,1.125,1.958,2.5,1.958A3.472,3.472,0,0,0,1272.426,529.517Z" transform="translate(-1195.887 -514.373)"/><path class="a" d="M1383.3,532.707V519.425h3.494v1.817a5.71,5.71,0,0,1,4.24-2.142v3.407a4.657,4.657,0,0,0-.963-.086,4.461,4.461,0,0,0-3.277,1.514v8.772Z" transform="translate(-1302.64 -514.373)"/><path class="a" d="M1463.1,502.118v-6.933h-2.2v-3.05h2.2V488.5h3.516v3.634h2.693v3.05h-2.693v5.992c0,.822.443,1.46,1.211,1.46a1.912,1.912,0,0,0,1.212-.389l.746,2.639a4.317,4.317,0,0,1-2.91.855C1464.416,505.753,1463.1,504.487,1463.1,502.118Z" transform="translate(-1371.846 -487.083)"/><path class="a" d="M1556.4,611.666a2.084,2.084,0,0,1,2.088-2.066,2.077,2.077,0,1,1,0,4.154A2.11,2.11,0,0,1,1556.4,611.666Z" transform="translate(-1457.017 -595.084)"/></g><path class="b" d="M330.409,543.351a4.8,4.8,0,0,1-4.809-4.809V526.168a1.878,1.878,0,0,1,.013-.268,9.746,9.746,0,0,0,9.619,9.364v3.279a4.824,4.824,0,0,1-4.822,4.809Z" transform="translate(-325.6 -512.097)"/><path class="a" d="M325.6,494.895a4.813,4.813,0,0,1,9.619.268v9.1A9.746,9.746,0,0,1,325.6,494.895Z" transform="translate(-325.6 -481.079)"/><path class="c" d="M338.79,440.879h-3.559v-9.1a4.813,4.813,0,0,0-9.619-.268c0-.128-.013-.255-.013-.383v-3.687a9.727,9.727,0,0,1,9.733-9.746h3.444a9.727,9.727,0,0,1,9.746,9.733v3.7a9.727,9.727,0,0,1-9.733,9.746Zm-5.307-.179a10.014,10.014,0,0,1-2.794-1A10.014,10.014,0,0,0,333.484,440.7ZM328.5,438.06a9.892,9.892,0,0,1-1.684-2.22,9.548,9.548,0,0,1-1.072-3.049,9.7,9.7,0,0,0,2.755,5.268Z" transform="translate(-325.6 -417.7)"/></svg>