<?xml version="1.0" encoding="utf-8"?>
<svg xmlns="http://www.w3.org/2000/svg" width="200" height="100" viewBox="0 0 200 100"><defs><style>.a,.d{fill:none;}.a{stroke:#707070;opacity:0;}.b{fill:#25252d;}.c{stroke:none;}</style></defs><g transform="translate(-2069 8765)"><g class="a" transform="translate(2069 -8765)"><rect class="c" width="200" height="100"/><rect class="d" x="0.5" y="0.5" width="199" height="99"/></g><g transform="translate(1740.838 -9158.856)"><g transform="translate(368.836 425.696)"><path class="b" d="M637.6,502.191V475.4h12.534c5.832,0,8.994,3.936,8.994,8.646,0,4.663-3.209,8.646-8.994,8.646h-6.828v9.531H637.6Zm15.711-18.161c0-2.245-1.691-3.62-3.936-3.62h-6.07v7.239h6.054C651.62,487.65,653.311,486.243,653.311,484.03Z" transform="translate(-637.6 -475.4)"/><path class="b" d="M784.9,541.51V522.1h5.105v19.41Z" transform="translate(-761.618 -514.719)"/><path class="b" d="M839.1,538.9V527.172c0-2.687-1.407-3.62-3.572-3.62a5.545,5.545,0,0,0-4.426,2.292V538.9H826V519.49h5.105v2.529A8.906,8.906,0,0,1,837.9,519c4.252,0,6.307,2.418,6.307,6.2v13.7Z" transform="translate(-796.221 -512.109)"/><path class="b" d="M959.666,502.191l-5.137-7.476-2.324,2.5v4.979H947.1V475.4h5.105v16.027l7.35-8.646h6.275l-7.682,8.8,7.919,10.606Z" transform="translate(-898.18 -475.4)"/><path class="b" d="M1097.056,538.9V526.65c0-1.8-.806-3.1-2.892-3.1a5.162,5.162,0,0,0-4.015,2.244v13.1h-5.137V526.65c0-1.8-.806-3.1-2.892-3.1a5.176,5.176,0,0,0-4.015,2.292V538.9H1073V519.49h5.105v2.529a8.5,8.5,0,0,1,6.354-3.019c2.861,0,4.663,1.328,5.39,3.541a8.231,8.231,0,0,1,6.67-3.541c3.572,0,5.706,1.881,5.706,5.864v14.02h-5.169Z" transform="translate(-1004.18 -512.109)"/><path class="b" d="M1276.5,538.984v-2.007a8.051,8.051,0,0,1-6.149,2.5c-3.1,0-6.749-2.086-6.749-6.433,0-4.536,3.651-6.275,6.749-6.275a7.948,7.948,0,0,1,6.149,2.371v-2.608c0-1.976-1.691-3.256-4.252-3.256a8.122,8.122,0,0,0-5.658,2.292l-1.929-3.414a12.734,12.734,0,0,1,8.472-3.051c4.426,0,8.472,1.77,8.472,7.35v12.534Zm0-4.663V531.9a5.1,5.1,0,0,0-4.094-1.691c-2.007,0-3.651,1.043-3.651,2.94,0,1.8,1.644,2.861,3.651,2.861A5.075,5.075,0,0,0,1276.5,534.321Z" transform="translate(-1164.654 -512.193)"/><path class="b" d="M1383.3,538.984v-19.41h5.105v2.655a8.345,8.345,0,0,1,6.2-3.13v4.979a6.79,6.79,0,0,0-1.407-.126,6.52,6.52,0,0,0-4.789,2.213v12.819Z" transform="translate(-1265.435 -512.193)"/><path class="b" d="M1464.108,508.4V498.268H1460.9v-4.457h3.209V488.5h5.137v5.311h3.936v4.457h-3.936v8.757c0,1.2.648,2.134,1.77,2.134a2.792,2.792,0,0,0,1.77-.569l1.091,3.857a6.307,6.307,0,0,1-4.252,1.249C1466.037,513.711,1464.108,511.861,1464.108,508.4Z" transform="translate(-1330.769 -486.429)"/><path class="b" d="M1556.4,612.619a3.051,3.051,0,1,1,3.051,3.051A3.083,3.083,0,0,1,1556.4,612.619Z" transform="translate(-1411.175 -588.388)"/></g></g></g></svg>